<svg width="350" height="186" viewBox="0 0 350 186" fill="none" xmlns="http://www.w3.org/2000/svg">
<path d="M45.5283 84.282L56.8939 41.2903H82.5902L105.816 24.4889L139.912 6.69922H174.009L240.226 28.9363L310.397 33.3837L341.035 46.2318V65.0098L310.397 72.4222H251.098L259.499 98.6126L240.226 115.908V141.604L228.367 152.476L221.448 171.748L199.211 181.631L132.5 177.184L77.1544 152.476H56.8939L45.5283 132.709V84.282Z" fill="white"/>
<path d="M55.4115 36.348L53.929 34.8656C54.8432 33.0372 54.6882 30.8559 53.5246 29.1751L50.9641 25.4766L48.4933 26.4649L38.116 28.4415L30.2094 38.3247L16.8672 94.6586L38.116 162.852H50.4699L51.3691 161.953C54.7551 158.567 55.9374 153.559 54.4232 149.016L57.3881 151.981L55.4115 36.348Z" fill="white"/>
<path d="M180.497 185.995C196.582 185.995 208.901 183.755 217.452 179.276C226.003 174.796 230.279 167.976 230.279 158.813C230.279 156.574 230.483 155.148 230.89 154.538C231.094 153.723 231.908 153.112 233.333 152.705C243.31 149.244 248.298 142.219 248.298 131.632C248.298 128.781 247.789 126.236 246.771 123.997C245.753 121.553 245.244 119.517 245.244 117.888C245.244 116.056 246.67 114.529 249.52 113.307C258.275 109.439 262.653 102.923 262.653 93.7609C262.653 86.6347 261.024 80.7301 257.766 76.0471C262.245 75.6399 266.827 75.3345 271.51 75.1309C276.193 74.9273 280.977 74.8255 285.864 74.8255C292.176 74.8255 298.589 75.0291 305.105 75.4363C311.62 75.6399 316.608 75.7417 320.07 75.7417C340.023 75.7417 350 68.7173 350 54.6684C350 47.3386 347.15 41.7394 341.449 37.8709C335.748 34.0023 326.687 31.3554 314.267 29.9302C307.955 29.1158 300.727 28.3013 292.583 27.4869C284.439 26.4689 276.905 25.5527 269.983 24.7382C265.503 24.331 261.126 23.9238 256.85 23.5166C252.371 23.1094 247.891 22.804 243.412 22.6004C240.561 20.3607 237.304 18.8336 233.639 18.0192C230.788 17.2048 226.818 15.9831 221.728 14.3543C216.638 12.7254 210.733 10.5876 204.014 7.94067C190.983 2.64689 173.982 0 153.01 0C143.848 0 135.704 1.42525 128.578 4.27574C121.248 7.12624 112.9 12.3182 103.534 19.8517C97.6295 24.331 93.0483 27.5887 89.7906 29.6248C86.3293 31.6609 83.2752 32.9843 80.6283 33.5951C77.9814 34.0023 74.9273 34.2059 71.466 34.2059C69.8371 34.2059 67.8011 34.2059 65.3578 34.2059C62.7109 34.0023 60.2676 33.7987 58.028 33.5951C55.7883 33.3915 54.5666 33.3915 54.363 33.5951C51.1053 37.0564 48.3566 41.943 46.117 48.2548C43.6737 54.5666 41.7394 61.591 40.3142 69.3281C38.8889 76.8615 38.1763 84.4968 38.1763 92.2338C38.1763 122.775 43.6736 143.848 54.6684 155.454H76.9634C86.1257 162.376 96.7132 168.179 108.726 172.862C120.535 177.341 132.65 180.599 145.07 182.635C157.49 184.875 169.299 185.995 180.497 185.995ZM192.714 175.611H180.497C167.467 175.611 154.741 174.389 142.321 171.946C129.901 169.299 118.397 165.634 107.81 160.951C97.0186 156.268 87.9581 150.771 80.6283 144.459H59.8604C52.7341 133.871 49.171 116.463 49.171 92.2338C49.171 83.2752 50.1891 74.4183 52.2251 65.6632C54.2612 56.9081 56.8063 49.8837 59.8604 44.5899C61.6928 44.7935 63.7289 44.9971 65.9686 45.2007C68.0047 45.2007 69.8371 45.2007 71.466 45.2007C75.9453 45.2007 80.0175 44.8953 83.6824 44.2845C87.3473 43.47 91.2158 41.8412 95.288 39.3979C99.1565 36.9546 104.145 33.3915 110.253 28.7086C118.805 21.7859 126.134 17.103 132.243 14.6597C138.147 12.2164 145.07 10.9948 153.01 10.9948C172.557 10.9948 188.133 13.3362 199.738 18.0192C206.661 20.8697 212.871 23.2112 218.368 25.0436C223.866 26.6725 228.04 27.8941 230.89 28.7086C232.519 29.1158 234.148 29.8284 235.777 30.8464C237.405 31.8645 238.22 32.5771 238.22 32.9843H238.525V36.0384C238.525 41.7394 236.896 45.9133 233.639 48.5602C230.177 51.2071 226.411 52.5305 222.339 52.5305C219.284 52.5305 215.212 52.2251 210.122 51.6143C205.032 50.7999 199.84 49.8837 194.546 48.8656C189.252 47.8476 184.671 46.8296 180.803 45.8115C176.731 44.5899 174.287 43.47 173.473 42.452L165.227 49.7819C167.67 52.2251 172.353 54.363 179.276 56.1955C178.461 57.6207 177.647 58.9442 176.832 60.1658C176.018 61.3874 175.204 62.5073 174.389 63.5253C171.946 62.5073 169.604 61.6928 167.365 61.082C164.921 60.4712 162.58 60.1658 160.34 60.1658C154.029 60.1658 149.244 62.1001 145.986 65.9686C142.728 69.6335 141.099 74.1129 141.099 79.4066C141.099 82.2571 141.609 85.2094 142.627 88.2635C136.518 88.8743 131.937 91.8266 128.883 97.1204C126.033 98.5457 122.978 99.5637 119.721 100.175C116.259 100.582 112.391 100.785 108.115 100.785C106.079 100.785 103.738 100.684 101.091 100.48C98.2403 100.276 96.0006 99.9709 94.3717 99.5637V110.253C98.4439 111.271 103.025 111.78 108.115 111.78C111.577 111.78 114.834 111.576 117.888 111.169C120.942 110.762 123.895 110.151 126.745 109.337C126.949 111.373 127.356 113.205 127.967 114.834C128.578 116.259 129.29 117.481 130.105 118.499C131.734 119.924 134.177 121.553 137.435 123.386C140.489 125.218 143.95 127.152 147.819 129.188C146.8 130.41 145.884 131.937 145.07 133.77C144.255 135.398 143.848 137.231 143.848 139.267C143.848 141.71 144.154 143.746 144.764 145.375C147.004 148.633 150.567 152.196 155.454 156.065C160.34 159.933 165.838 163.496 171.946 166.754C176.629 169.197 180.701 171.131 184.162 172.557C187.42 173.778 190.271 174.796 192.714 175.611ZM48.2548 165.532C50.4945 165.532 52.1233 164.921 53.1414 163.7C53.9558 162.478 54.363 161.053 54.363 159.424V157.286C53.1414 159.322 51.6143 160.34 49.7818 160.34C45.7097 160.34 42.3502 158.304 39.7033 154.232C36.8528 149.956 34.6132 144.561 32.9843 138.045C31.1518 131.326 29.9302 124.098 29.3194 116.361C28.505 108.624 28.0978 101.294 28.0978 94.3717C28.0978 87.4491 28.505 80.2211 29.3194 72.6876C29.9302 64.9505 31.05 57.8243 32.6789 51.3089C34.1041 44.5899 36.242 39.1943 39.0925 35.1222C41.943 30.8464 45.5061 28.7086 49.7818 28.7086C51.6143 28.7086 53.1414 29.4212 54.363 30.8464V30.2356C54.363 25.349 52.327 22.9058 48.2548 22.9058H25.3491C20.4625 22.9058 16.3904 25.349 13.1326 30.2356C9.87496 34.9186 7.32987 40.925 5.49739 48.2548C3.46133 55.5846 2.0361 63.4235 1.22168 71.7714C0.407238 79.9157 7.43284e-06 87.4491 7.43284e-06 94.3717C7.43284e-06 101.294 0.407238 108.93 1.22168 117.277C2.0361 125.422 3.35954 133.159 5.19201 140.489C7.02446 147.818 9.67134 153.825 13.1326 158.508C16.3904 163.191 20.4625 165.532 25.3491 165.532H48.2548ZM215.62 75.7417C207.679 74.5201 201.265 73.0948 196.379 71.466C191.492 69.6335 187.725 68.3101 185.079 67.4956H184.773C185.588 66.0704 186.504 64.6451 187.522 63.2199C188.336 61.7946 189.151 60.3694 189.965 58.9442C195.87 60.3694 201.876 61.4892 207.984 62.3037C213.889 63.1181 218.877 63.5253 222.949 63.5253C229.872 63.5253 235.98 61.082 241.274 56.1955C246.568 51.3089 249.215 44.4881 249.215 35.733V34.2059C252.676 34.4095 256.035 34.6132 259.293 34.8168C262.551 35.0204 265.605 35.3258 268.455 35.733C275.989 36.5474 283.726 37.3618 291.667 38.1763C299.607 38.9907 306.632 39.9069 312.74 40.925C322.717 42.3502 329.639 44.0809 333.508 46.1169C337.173 47.9494 339.005 50.7999 339.005 54.6684C339.005 58.1297 337.682 60.6748 335.035 62.3037C332.388 63.9325 327.4 64.7469 320.07 64.7469C316.608 64.7469 311.722 64.6451 305.41 64.4415C298.895 64.0343 292.379 63.8307 285.864 63.8307C279.959 63.8307 273.546 64.0343 266.623 64.4415C259.497 64.8487 252.88 65.256 246.771 65.6632C245.346 65.256 243.819 65.0524 242.19 65.0524C240.358 64.8488 238.118 64.7469 235.471 64.7469C230.992 64.7469 226.818 65.6632 222.949 67.4956C219.081 69.3281 216.638 72.0768 215.62 75.7417ZM226.309 110.864C222.237 110.864 216.841 110.355 210.122 109.337C203.2 108.115 196.786 106.486 190.881 104.45C180.905 100.989 172.964 97.5276 167.059 94.0663C160.951 90.605 156.472 87.7545 153.621 85.5148C153.418 85.1076 153.112 84.0896 152.705 82.4607C152.094 80.8319 151.789 79.4066 151.789 78.185C151.789 75.3345 152.705 73.4002 154.538 72.3822C156.37 71.1606 158.101 70.4479 159.73 70.2443C162.987 69.8371 166.652 70.6515 170.724 72.6876C174.593 74.7237 178.461 76.3525 182.33 77.5742C188.031 79.6102 194.037 81.6463 200.349 83.6824C206.457 85.5148 214.5 86.9401 224.476 87.9581C224.476 83.886 225.494 80.8319 227.531 78.7958C229.567 76.5561 233.537 75.4363 239.442 75.4363C240.256 75.4363 241.172 75.4363 242.19 75.4363C243.005 75.4363 243.921 75.5381 244.939 75.7417C247.789 77.9814 249.622 80.8319 250.436 84.2932C251.251 87.5509 251.658 91.0122 251.658 94.6771C251.658 96.7132 251.149 98.2403 250.131 99.2583C249.113 100.276 246.975 101.905 243.717 104.145C236.387 108.624 230.585 110.864 226.309 110.864ZM221.422 144.764C215.518 144.764 209.104 143.746 202.182 141.71C195.259 139.471 187.318 136.62 178.36 133.159C173.88 131.326 168.994 129.188 163.7 126.745C158.202 124.098 153.214 121.553 148.735 119.11C144.052 116.667 140.794 114.732 138.962 113.307C137.536 111.067 136.824 108.726 136.824 106.283C136.824 103.636 137.638 101.294 139.267 99.2583C140.692 97.2222 142.83 96.2042 145.681 96.2042C147.513 96.2042 149.753 96.7132 152.4 97.7312C157.286 100.785 162.885 103.839 169.197 106.894C175.509 109.948 182.228 112.595 189.354 114.834C193.63 116.259 198.313 117.481 203.403 118.499C208.493 119.517 213.278 120.332 217.757 120.942C222.033 121.553 225.393 121.859 227.836 121.859C230.686 121.859 233.435 121.35 236.082 120.332C236.693 121.757 237.304 123.589 237.914 125.829C238.322 128.069 238.525 130.41 238.525 132.853C238.525 137.129 236.896 140.183 233.639 142.016C230.177 143.848 226.105 144.764 221.422 144.764ZM209.817 168.281C203.505 168.281 198.415 167.772 194.546 166.754C190.678 165.736 187.216 164.412 184.162 162.784C180.905 161.155 177.443 159.322 173.778 157.286C169.706 155.047 165.838 152.501 162.173 149.651C158.508 146.597 155.861 143.95 154.232 141.71C154.639 138.656 155.861 136.111 157.897 134.075C160.951 135.5 164.005 136.926 167.059 138.351C170.113 139.776 172.862 140.998 175.305 142.016C181.006 144.255 187.624 146.902 195.157 149.956C202.487 152.807 210.326 154.232 218.674 154.232H220.812C221.015 154.639 221.117 155.25 221.117 156.065C221.117 158.304 220.506 160.951 219.284 164.005C217.859 166.856 214.703 168.281 209.817 168.281Z" fill="black"/>
<path d="M45.5283 100.098L57.3881 148.031" stroke="black" stroke-width="0.988316"/>
</svg>
