<svg width="174" height="56" viewBox="0 0 174 56" fill="none" xmlns="http://www.w3.org/2000/svg">
<path d="M167.747 43.1472L158.357 39.6261V18.6672L167.188 12.3516L173.727 16.7669V22.0206L163.443 29.3422V35.1549C163.443 37.0551 164.785 38.0612 166.741 38.2288L173.727 38.8995L167.747 43.1472ZM163.443 25.5417L168.641 24.7033V20.5675C168.641 17.9965 168.082 17.1022 166.126 16.8787L163.443 16.5992V25.5417Z" fill="black"/>
<path d="M151.629 43.1472L146.432 39.2349V20.5675C146.432 18.6672 145.37 17.5494 143.469 17.3817L139.557 17.0464V42.5883H134.471V17.6053L129.553 16.9905L134.359 12.3516L139.334 16.5992L145.258 12.3516L151.518 17.3258V38.0612L156.268 38.676L151.629 43.1472Z" fill="black"/>
<path d="M127.399 38.0614L132.15 38.6762L127.511 43.1474L122.313 39.2351V17.6055L117.395 16.9907L122.201 12.3518L127.399 16.2641V38.0614ZM124.045 0L128.684 3.52109L125.163 8.16L120.524 4.63891L124.045 0Z" fill="black"/>
<path d="M115.311 43.1472L110.225 38.7877L103.797 43.1472L98.5996 39.4025V33.4223L110.113 25.6535V20.1203C110.113 18.2201 109.051 17.1022 107.151 16.9346L103.35 16.5992V23.6973H98.7673L100.388 17.214L107.207 12.3516L115.199 16.7669V38.0612L119.95 38.676L115.311 43.1472ZM103.686 34.8195C103.686 36.7198 104.3 37.8935 106.201 38.0053L110.113 38.2847V29.8453L103.686 30.7954V34.8195Z" fill="black"/>
<path d="M76.2246 20.5675C76.2246 18.6672 75.1627 17.5494 73.2624 17.3817L69.3501 17.0464V42.5883H64.2641V17.6053L59.3457 16.9905L64.1523 12.3516L69.1265 16.5992L75.0509 12.3516L80.8076 16.5992L86.7879 12.3516L93.0476 17.3258V38.0612L97.7983 38.676L93.1594 43.1472L87.9616 39.2349V20.5675C87.9616 18.6672 86.8997 17.5494 84.9994 17.3817L81.3106 17.0464V42.5883H76.2246V20.5675Z" fill="black"/>
<path d="M47.5766 42.5883V17.6053L42.6582 16.9905L47.4648 12.3516L52.2714 16.5433L54.3952 12.4075H59.0341V17.1022L54.3393 16.711C53.2215 16.5992 52.6626 17.4935 52.6626 18.6672V42.5883H47.5766Z" fill="black"/>
<path d="M36.0126 43.1472L26.623 39.6261V18.6672L35.4537 12.3516L41.9929 16.7669V22.0206L31.7091 29.3422V35.1549C31.7091 37.0551 33.0504 38.0612 35.0066 38.2288L41.9929 38.8995L36.0126 43.1472ZM31.7091 25.5417L36.9069 24.7033V20.5675C36.9069 17.9965 36.348 17.1022 34.3918 16.8787L31.7091 16.5992V25.5417Z" fill="black"/>
<path d="M11.4575 56.002L0 48.6245L6.65096 40.7998L4.6948 40.2968L3.18575 33.2546L11.5134 30.9631L3.96822 27.3861V18.4436L12.4636 12.3516L18.388 15.4255L24.4241 12.631V17.6053H20.4V25.7653L8.27178 34.3724C8.27178 35.5461 8.83069 36.2727 10.8986 36.8316L21.909 39.8496V48.5127L11.4575 56.002ZM15.5934 21.1264C15.5934 18.5554 14.9786 17.2699 12.3518 16.9905L8.7748 16.5992V22.6913C8.7748 25.7094 9.66904 26.4918 12.0164 26.7713L15.5934 27.1625V21.1264ZM6.53918 46.6124C6.20384 48.6244 7.20986 49.7981 9.27781 49.9658L16.8789 50.6365V46.9477C16.8789 44.6562 16.4877 43.4266 14.7551 42.9795L7.43343 41.0233L6.53918 46.6124Z" fill="black"/>
</svg>
