<svg width="24" height="24" viewBox="0 0 24 24" fill="none" xmlns="http://www.w3.org/2000/svg">
<circle cx="12" cy="12" r="12" fill="white"/>
<path d="M24 12.0094C24 15.3224 22.8267 18.1522 20.48 20.4988C18.1459 22.8329 15.3224 24 12.0094 24C8.69647 24 5.86667 22.8329 3.52 20.4988C1.17333 18.1522 0 15.3224 0 12.0094C0 8.68392 1.17333 5.85412 3.52 3.52C5.86667 1.17333 8.69647 0 12.0094 0C15.3224 0 18.1459 1.17333 20.48 3.52C22.8267 5.85412 24 8.68392 24 12.0094ZM22.2682 12.0094C22.2682 9.17333 21.2643 6.75765 19.2565 4.76235C17.2612 2.75451 14.8455 1.75059 12.0094 1.75059C9.17333 1.75059 6.75137 2.75451 4.74353 4.76235C2.74824 6.75765 1.75059 9.17333 1.75059 12.0094C1.75059 14.8329 2.74824 17.2486 4.74353 19.2565C6.75137 21.2518 9.17333 22.2494 12.0094 22.2494C14.8455 22.2494 17.2612 21.2518 19.2565 19.2565C21.2643 17.2486 22.2682 14.8329 22.2682 12.0094ZM8.92235 9.52471C8.92235 9.93882 8.77177 10.2965 8.47059 10.5976C8.18196 10.8988 7.82431 11.0494 7.39765 11.0494C6.98353 11.0494 6.62588 10.8988 6.32471 10.5976C6.02353 10.2965 5.87294 9.93882 5.87294 9.52471C5.87294 9.09804 6.02353 8.74039 6.32471 8.45177C6.62588 8.15059 6.98353 8 7.39765 8C7.82431 8 8.18196 8.15059 8.47059 8.45177C8.77177 8.74039 8.92235 9.09804 8.92235 9.52471ZM18.1271 9.52471C18.1271 9.93882 17.9765 10.2965 17.6753 10.5976C17.3867 10.8988 17.029 11.0494 16.6024 11.0494C16.1882 11.0494 15.8306 10.8988 15.5294 10.5976C15.2282 10.2965 15.0776 9.93882 15.0776 9.52471C15.0776 9.09804 15.2282 8.74039 15.5294 8.45177C15.8306 8.15059 16.1882 8 16.6024 8C17.029 8 17.3867 8.15059 17.6753 8.45177C17.9765 8.74039 18.1271 9.09804 18.1271 9.52471ZM6.47529 15.8682L7.64235 15.1906C8.63373 16.9976 10.0894 17.9012 12.0094 17.9012C13.9294 17.9012 15.3788 16.9976 16.3576 15.1906L17.5435 15.8682C16.9161 17.0604 16.138 17.9702 15.2094 18.5976C14.2933 19.2251 13.2267 19.5388 12.0094 19.5388C10.7796 19.5388 9.70667 19.2251 8.79059 18.5976C7.87451 17.9702 7.10275 17.0604 6.47529 15.8682Z" fill="black"/>
</svg>
